<svg xmlns="http://www.w3.org/2000/svg" fill="currentColor" viewBox="0 0 24 24">
  <path d="M22.46 6c-.77.35-1.6.59-2.46.7a4.3 4.3 0 001.88-2.37 8.59 8.59 0 01-2.72 1.04A4.28 4.28 0 0015.5 4c-2.4 0-4.33 1.93-4.33 4.32 0 .34.04.67.11.99C7.69 9.15 4.07 7.1 1.64 4.07a4.32 4.32 0 00-.58 2.18c0 1.5.76 2.83 1.91 3.61a4.28 4.28 0 01-1.96-.54v.06c0 2.1 1.5 3.85 3.5 4.24a4.32 4.32 0 01-1.95.07c.55 1.72 2.13 2.97 4 3a8.6 8.6 0 01-5.3 1.82A8.72 8.72 0 012 19.54a12.14 12.14 0 006.57 1.92c7.88 0 12.2-6.53 12.2-12.2 0-.19-.01-.38-.02-.57A8.71 8.71 0 0022.46 6z"/>
</svg>